<?xml version="1.0" encoding="utf-8"?>
<!-- Generator: Adobe Illustrator 24.1.0, SVG Export Plug-In . SVG Version: 6.00 Build 0)  -->
<svg version="1.1" xmlns="http://www.w3.org/2000/svg" xmlns:xlink="http://www.w3.org/1999/xlink" x="0px" y="0px"
	 viewBox="0 0 1000 1000" style="enable-background:new 0 0 1000 1000;" xml:space="preserve">
<style type="text/css">
	.st0{clip-path:url(#SVGID_2_);}
	.st1{fill:#FFFFFF;}
	.st2{fill:none;}
</style>
<g id="Layer_2">
	<rect y="-0.68" width="1000" height="1000"/>
</g>
<g id="Layer_1">
	<g>
		<defs>
			<rect id="SVGID_1_" x="-2.2" y="-0.68" width="1002.2" height="1002.2"/>
		</defs>
		<clipPath id="SVGID_2_">
			<use xlink:href="#SVGID_1_"  style="overflow:visible;"/>
		</clipPath>
		<g class="st0">
			<path class="st1" d="M418.7,112.28c21.86,41.5,32.75,84.89,32.75,140.9c0,72.31-18.65,138.78-54.11,185.08
				c-33.03,43.13-105.92,67.64-105.92,67.64c33.16,52.35,133.91,212.32,203.13,322.13c0.28-35.32,0.52-69.28,0.64-94.91
				c0.41-86.87,0.56-169.79,0.56-248.78c0-149.8-0.48-258.3-1.41-345.7c-0.76-71.27-1.22-121.34-1.36-139.33H290.59
				c13.27,5.14,26.42,11.22,39.4,18.64C367.28,39.35,396.85,70.79,418.7,112.28z"/>
			<path class="st1" d="M916.23,950.56c-32.77,22.92-68.77,39.62-107.95,50.06c-1.3,0.35-2.72,0.57-4.02,0.91H1000V851.85
				C980.62,891.97,952.72,924.88,916.23,950.56z"/>
			<path class="st1" d="M292.15,449.95c17.73-13.7,31.94-31.45,41.55-50.03c5.93-11.47,10.1-19.88,17.15-46.1
				c12.14-45.15,10.29-70.75,8.73-101.84c-1.97-39.22-11.92-57.73-27.19-86.03c-15.28-28.3-36.31-49.08-63.08-62.34
				c-21.88-11.23-44.9-17.99-69.02-20.28c-24.15-2.29-46.4-3.44-66.76-3.44c-13.57,0-23.96,0.13-31.12,0.38
				c-7.17,0.27-12.45,0.38-15.84,0.38c-0.75,96.9-1.23,182.3-1.41,256.25c-0.19,73.94-0.29,126.21-0.29,156.81
				c0,69.86,0.29,164.72,0.85,284.55c0.56,116.98,1.02,191.31,1.39,223.25h397.11c-39.97-69.56-205.3-365.41-299.3-510.83
				C226.67,482.26,277.21,461.5,292.15,449.95z"/>
			<path class="st1" d="M895.94,592.46c-21.33-29.88-36.57-41.9-56.9-56.73c0,0-47.94-35.84-133.03-51.9
				c30.71-8.28,41.72-13.08,55.41-19.74c20.43-9.94,45.92-28.42,64.46-52.1c16.94-21.64,23.47-40.52,31.1-65.04
				c7.66-24.62,8.83-53.97,8.83-83.53c0-31.07-5.65-68.04-16.94-90.71c-11.29-22.66-26.73-40.62-46.3-53.88
				c-16.57-10.7-36.9-18.73-60.99-24.08c-24.09-5.35-49.87-8.02-77.35-8.02c-17.7,0-33.97,0.38-48.84,1.15
				c-14.88,0.76-24.38,1.15-28.51,1.15c-1.14,74.4-1.8,163.45-1.98,247.01c-0.2,83.57-0.29,134.12-0.29,171.82
				c0,87.64,0.29,175.67,0.85,264.06c0.57,88.41,0.85,135.66,0.85,141.78c7.53,0.51,17.6,1.15,30.22,1.91
				c12.61,0.77,24.76,1.15,36.44,1.15c43.3,0,83.5-3.06,120.59-9.17c37.09-6.12,68.44-18.84,94.05-38.22
				c21.09-15.79,37.65-31.59,51.72-58.37c11.47-25.47,17.69-48.77,17.69-82.91c0-25.99-3.49-44.64-9.38-68.07
				C922.33,638.94,915.66,620.08,895.94,592.46z"/>
			<path class="st1" d="M932.56,113.42c19.59,34.39,29.38,76.56,29.38,126.49c0,52.49-12.3,109.06-36.88,149.56
				c-23.68,39-57.05,70.73-87.64,86.23c26.15,3.69,66.12,15.59,89.14,29.18c28.02,16.54,41.23,29.66,54.21,47.62
				c7.18,9.94,13.53,20.34,19.23,31.12V-0.68H783.95c23.46,6.47,38.9,14.76,57.69,24.92C875.93,42.58,912.98,79.03,932.56,113.42z"
				/>
			<path class="st2" d="M493.01,1001.52h-8.79c4.75,8.26,7.83,13.52,8.71,14.76l5.14-5.71c-2.37-0.16-4.21-0.3-5.14-0.4
				C492.91,1011,492.95,1007.76,493.01,1001.52z"/>
			<path class="st2" d="M-2.2-0.68h292.79c-16.78-6.5-33.77-11.36-51.02-14.2c-30.88-5.08-62.73-7.64-95.49-7.64
				c-28.64,0-59.89,0.52-93.8,1.53c-33.91,1.03-52.74,1.53-56.5,1.53c1.88,181.9,2.82,307.24,2.82,376.03c0,68.78,0,115.92,0,141.39
				c0,130.95-0.37,240.37-1.13,328.26c-0.77,87.89-1.33,147.13-1.7,177.7h93.35c-0.01-0.73-0.02-1.61-0.03-2.39H-2.2V-0.68z"/>
			<path class="st2" d="M494.55,828.03C425.33,718.22,324.58,558.24,291.42,505.9c0,0,72.88-24.51,105.92-67.64
				c35.46-46.3,54.11-112.77,54.11-185.08c0-56.01-10.89-99.4-32.75-140.9c-21.85-41.48-51.42-72.93-88.71-94.32
				c-12.98-7.42-26.13-13.5-39.4-18.64H-2.2v1002.2h89.3c-0.38-31.94-0.83-106.27-1.39-223.25c-0.56-119.84-0.85-214.69-0.85-284.55
				c0-30.6,0.1-82.87,0.29-156.81c0.19-73.95,0.66-159.36,1.41-256.25c3.4,0,8.68-0.12,15.84-0.38c7.16-0.25,17.54-0.38,31.12-0.38
				c20.37,0,42.62,1.15,66.76,3.44c24.13,2.29,47.15,9.06,69.02,20.28c26.77,13.25,47.8,34.03,63.08,62.34
				c15.27,28.3,25.22,46.81,27.19,86.03c1.56,31.09,3.41,56.69-8.73,101.84c-7.05,26.22-11.22,34.64-17.15,46.1
				c-9.6,18.58-23.82,36.33-41.55,50.03c-14.95,11.55-65.48,32.31-107.24,40.74c94,145.41,259.33,441.27,299.3,510.83h8.79
				C493.25,976.13,493.98,899.34,494.55,828.03z"/>
			<path class="st2" d="M768.69-4.42c-32.79-6.88-68.57-10.32-107.37-10.32c-34.28,0-69.61,1.03-105.96,3.06
				c-36.35,2.04-57.16,3.32-62.43,3.82c0,0.66,0.02,3.11,0.05,7.18h290.98C779.19-1.99,774.22-3.26,768.69-4.42z"/>
			<path class="st2" d="M1029.84,722.95c0-38.72-4.15-71.33-12.42-97.83c-4.55-14.56-10.47-28.32-17.42-41.49v268.22
				c0.23-0.48,0.5-0.93,0.73-1.42C1020.13,809.68,1029.84,773.9,1029.84,722.95z"/>
			<path class="st2" d="M498.06,1010.58c9.26,0.61,29.37,1.62,60.71,3.03c39.37,1.78,77.69,2.68,115.01,2.68
				c48.82,0,92.23-4.99,130.48-14.76H506.21L498.06,1010.58z"/>
			<path class="st2" d="M980.77,552.51c-12.97-17.96-26.19-31.08-54.21-47.62c-23.01-13.59-62.99-25.49-89.14-29.18
				c-1.19,0.6-2.4,1.35-3.57,1.9v-2.44c1.11,0.13,2.41,0.37,3.57,0.54c30.59-15.51,63.95-47.24,87.64-86.23
				c24.58-40.5,36.88-97.07,36.88-149.56c0-49.93-9.79-92.1-29.38-126.49s-56.64-70.84-90.92-89.18
				c-18.79-10.16-34.23-18.45-57.69-24.92H492.97c0.14,17.99,0.6,68.06,1.36,139.33c0.94,87.39,1.41,195.89,1.41,345.7
				c0,78.98-0.16,161.91-0.56,248.78c-0.12,25.63-0.36,59.58-0.64,94.91c38.7,61.39,67.58,107.16,69.2,109.54l-57.54,63.96h298.05
				c1.31-0.33,2.73-0.56,4.02-0.91c39.18-10.43,75.17-27.13,107.95-50.06c36.48-25.68,64.38-58.59,83.77-98.71V583.63
				C994.3,572.85,987.95,562.45,980.77,552.51z M919.33,810.98c-14.07,26.78-30.63,42.58-51.72,58.37
				c-25.61,19.37-56.96,32.1-94.05,38.22c-37.09,6.11-77.29,9.17-120.59,9.17c-11.68,0-23.83-0.38-36.44-1.15
				c-12.61-0.76-22.68-1.4-30.22-1.91c0-6.11-0.28-53.37-0.85-141.78c-0.56-88.39-0.85-176.42-0.85-264.06
				c0-37.7,0.09-88.25,0.29-171.82c0.19-83.56,0.85-172.61,1.98-247.01c4.13,0,13.63-0.38,28.51-1.15
				c14.87-0.77,31.14-1.15,48.84-1.15c27.47,0,53.26,2.67,77.35,8.02c24.09,5.35,44.42,13.38,60.99,24.08
				c19.56,13.26,35,31.22,46.3,53.88c11.29,22.68,16.94,59.64,16.94,90.71c0,29.55-1.17,58.91-8.83,83.53
				c-7.63,24.52-14.16,43.4-31.1,65.04c-18.54,23.68-44.03,42.16-64.46,52.1c-13.69,6.66-24.7,11.46-55.41,19.74
				c85.09,16.06,133.03,51.9,133.03,51.9c20.33,14.83,35.57,26.85,56.9,56.73c19.72,27.62,26.39,46.48,31.69,67.54
				c5.89,23.43,9.38,42.08,9.38,68.07C937.01,762.21,930.8,785.52,919.33,810.98z"/>
			<path class="st2" d="M833.85,477.61c1.18-0.55,2.39-1.3,3.57-1.9c-1.17-0.16-2.46-0.41-3.57-0.54V477.61z"/>
			<path class="st2" d="M493.01,1001.52c-0.06,6.24-0.09,9.48-0.08,8.65c0.92,0.1,2.76,0.24,5.14,0.4l8.15-9.05H493.01z"/>
			<path class="st2" d="M506.21,1001.52l57.54-63.96c-1.62-2.38-30.5-48.15-69.2-109.54c-0.57,71.31-1.3,148.1-1.54,173.5H506.21z"
				/>
		</g>
	</g>
</g>
</svg>
